<svg width="494" height="56" viewBox="0 0 494 56" fill="none" xmlns="http://www.w3.org/2000/svg">
<path d="M17.3962 10.0035V48.9002L17.4821 54.3488H7.16819L7.23695 48.9002V10.0035H0V0.962524H24.4956V10.0035H17.3962Z" fill="black"/>
<path d="M54.9567 0.962524L54.8879 6.41116V41.0624C54.8879 50.1721 49.9544 55.2426 41.8236 55.2426C33.6928 55.2426 28.828 50.1721 28.828 41.0624V6.41116L28.7593 0.962524H39.056L38.9873 6.41116V41.3546C38.9873 44.4141 39.6577 46.1329 41.8236 46.1329C43.9895 46.1329 44.6599 44.4141 44.6599 41.3546V0.962524H54.9567Z" fill="black"/>
<path d="M71.08 23.5993H71.9052C75.7041 23.5993 76.6839 20.9179 76.6839 16.81V16.5865C76.6839 12.702 75.7041 9.71128 71.9739 9.71128H71.08V23.5993ZM71.08 32.8637V48.9174L71.1488 54.366H60.8521L60.9208 48.9174V6.41116L60.8521 0.962524H72.2833C83.7146 0.962524 86.9119 7.52839 86.9119 15.5209V15.6756C86.9119 25.0775 83.6287 27.1744 79.7437 28.3776V28.7557C82.8036 29.5808 86.6885 31.5918 86.8432 40.4093C86.9119 46.3048 86.9979 49.2955 88.0465 53.2488V54.366H77.9732C76.7011 50.2581 76.6324 46.8204 76.4777 38.7592C76.4089 35.2528 74.9134 32.8637 71.8536 32.8637H71.1144H71.08Z" fill="black"/>
<path d="M92.8075 48.9002V6.41116L92.7388 0.962524H99.3913L106.714 18.8897C107.986 21.7945 108.055 22.3274 108.88 24.4071H109.19C109.121 22.6196 109.035 20.007 109.035 18.1335V6.41116L108.88 0.962524H118.661L118.506 6.41116V48.9002L118.661 54.3488H112.249L104.256 35.3044C103.517 33.6543 102.692 31.2652 102.382 30.5949H102.09C102.245 32.3137 102.314 34.9263 102.314 36.8685V48.883L102.382 54.3317H92.7388L92.8075 48.883V48.9002Z" fill="black"/>
<path d="M134.701 36.7999C134.701 43.0735 134.855 46.133 137.829 46.133C140.803 46.133 140.958 43.0735 140.958 36.7999V18.5117C140.958 12.238 140.665 9.17855 137.829 9.17855C134.838 9.17855 134.701 12.238 134.701 18.5117V36.7999ZM128.357 52.0286C125.745 49.2613 124.404 45.4627 124.404 34.7029V20.6087C124.404 9.84889 125.745 6.05032 128.357 3.28303C130.3 1.27202 133.583 0.0688477 137.846 0.0688477C142.109 0.0688477 145.393 1.27202 147.335 3.28303C149.948 6.11907 151.375 9.84889 151.375 20.6087V34.7201C151.375 45.4799 150.034 49.2785 147.335 52.0457C145.393 54.1427 142.178 55.2599 137.846 55.2599C133.514 55.2599 130.3 54.1427 128.357 52.0457" fill="black"/>
<path d="M183.157 0.962524L183.089 6.41116V41.0624C183.089 50.1721 178.155 55.2426 170.024 55.2426C161.893 55.2426 157.029 50.1721 157.029 41.0624V6.41116L156.96 0.962524H167.257L167.188 6.41116V41.3546C167.188 44.4141 167.858 46.1329 170.024 46.1329C172.19 46.1329 172.861 44.4141 172.861 41.3546V0.962524H183.157Z" fill="black"/>
<path d="M204.819 10.0035V48.9002L204.887 54.3488H194.591L194.659 48.9002V10.0035H187.422V0.962524H211.918V10.0035H204.819Z" fill="black"/>
<path d="M290.39 45.4797C294.275 45.4797 295.461 43.6062 295.461 38.6045V38.381C295.461 34.273 294.12 31.6604 290.528 31.6604H289.703V45.4797H290.373H290.39ZM289.72 22.5507H290.682C294.344 22.5507 295.392 19.4913 295.392 15.6067V15.3833C295.392 11.6535 294.344 9.33307 290.459 9.33307H289.72V22.5507ZM279.561 54.28L279.629 48.8314V6.35953L279.561 0.910889H291.439C300.481 0.910889 305.173 6.20483 305.173 14.5754V14.7301C305.173 20.6257 303.747 24.9571 297.851 26.8306V27.1228C303.523 28.3947 305.689 32.7261 305.689 38.6216V38.7763C305.689 50.2752 300.842 54.3144 291.731 54.3144H279.561V54.28Z" fill="#241F21"/>
<path d="M336.389 0.910889L336.321 6.35952V41.0108C336.321 50.1205 331.387 55.191 323.256 55.191C315.125 55.191 310.261 50.1205 310.261 41.0108V6.35952L310.192 0.910889H320.489L320.42 6.35952V41.303C320.42 44.3625 321.09 46.0813 323.256 46.0813C325.422 46.0813 326.093 44.3625 326.093 41.303V0.910889H336.389Z" fill="#241F21"/>
<path d="M352.513 23.5305H353.338C357.137 23.5305 358.117 20.8491 358.117 16.7412V16.5177C358.117 12.6332 357.137 9.64246 353.407 9.64246H352.513V23.5305ZM352.513 32.7949V48.8486L352.582 54.2972H342.285L342.354 48.8486V6.35953L342.285 0.910889H353.716C365.148 0.910889 368.345 7.47675 368.345 15.4692V15.6239C368.345 25.0258 365.062 27.1228 361.177 28.326V28.7041C364.237 29.5291 368.122 31.5401 368.276 40.3576C368.345 46.2532 368.431 49.2439 369.48 53.1972V54.3144H359.406C358.134 50.2064 358.066 46.7688 357.911 38.7076C357.842 35.2012 356.347 32.8121 353.287 32.8121H352.548L352.513 32.7949Z" fill="#241F21"/>
<path d="M374.241 48.8486V6.35952L374.172 0.910889H380.825L388.148 18.8381C389.42 21.7429 389.489 22.2757 390.314 24.3555H390.606C390.537 22.5679 390.451 19.9553 390.451 18.0818V6.35952L390.297 0.910889H400.078L399.923 6.35952V48.8486L400.078 54.2972H393.649L385.655 35.2528C384.916 33.6027 384.091 31.2136 383.782 30.5432H383.489C383.644 32.262 383.713 34.8746 383.713 36.8169V48.8314L383.782 54.28H374.155L374.224 48.8314L374.241 48.8486Z" fill="#241F21"/>
<path d="M416.133 36.7482C416.133 43.0219 416.288 46.0814 419.262 46.0814C422.236 46.0814 422.39 43.0219 422.39 36.7482V18.46C422.39 12.1864 422.098 9.12689 419.262 9.12689C416.271 9.12689 416.133 12.1864 416.133 18.46V36.7482ZM409.79 51.9769C407.177 49.2096 405.836 45.411 405.836 34.6513V20.5398C405.836 9.78004 407.177 5.98147 409.79 3.21418C411.733 1.20317 415.016 0 419.279 0C423.542 0 426.825 1.18598 428.768 3.21418C431.381 6.05022 432.807 9.78004 432.807 20.5398V34.6513C432.807 45.411 431.467 49.2096 428.768 51.9769C426.825 54.0738 423.611 55.1911 419.279 55.1911C414.947 55.1911 411.733 54.0738 409.79 51.9769Z" fill="#241F21"/>
<path d="M464.591 0.910889L464.523 6.35952V41.0108C464.523 50.1205 459.589 55.191 451.458 55.191C443.328 55.191 438.463 50.1205 438.463 41.0108V6.35952L438.394 0.910889H448.691L448.622 6.35952V41.303C448.622 44.3625 449.292 46.0813 451.458 46.0813C453.624 46.0813 454.295 44.3625 454.295 41.303V0.910889H464.591Z" fill="#241F21"/>
<path d="M486.25 9.95184V48.8486L486.336 54.2972H476.022L476.091 48.8486V9.95184H468.854V0.910889H493.35V9.95184H486.25Z" fill="#241F21"/>
<path d="M225.858 30.5262V39.7391L225.893 42.8501H220.014L220.048 39.7391V15.4694L220.014 12.3584H231.789V17.5148H225.858V24.7167H230.843V30.5262H225.858Z" fill="#FF737D"/>
<path d="M239.938 32.8292C239.938 36.4043 240.024 38.1575 241.725 38.1575C243.427 38.1575 243.513 36.4043 243.513 32.8292V22.3788C243.513 18.8037 243.341 17.0505 241.725 17.0505C240.024 17.0505 239.938 18.8037 239.938 22.3788V32.8292ZM236.311 41.5264C234.815 39.9451 234.042 37.7794 234.042 31.626V23.5648C234.042 17.4286 234.815 15.2458 236.311 13.6644C237.411 12.5128 239.302 11.8253 241.725 11.8253C244.149 11.8253 246.04 12.5128 247.14 13.6644C248.636 15.2801 249.444 17.4115 249.444 23.5648V31.626C249.444 37.7622 248.67 39.9451 247.14 41.5264C246.04 42.7296 244.201 43.3655 241.725 43.3655C239.25 43.3655 237.411 42.7296 236.311 41.5264Z" fill="#FF737D"/>
<path d="M258.622 25.2839H259.086C261.269 25.2839 261.819 23.7541 261.819 21.3994V21.279C261.819 19.0618 261.269 17.3601 259.138 17.3601H258.622V25.3011V25.2839ZM258.622 30.5778V39.7563L258.673 42.8673H252.777L252.829 39.7563V15.4694L252.777 12.3584H259.31C265.842 12.3584 267.664 16.1054 267.664 20.6775V20.7634C267.664 26.1433 265.79 27.3293 263.573 28.0168V28.223C265.326 28.6871 267.543 29.8387 267.629 34.8748C267.664 38.2437 267.715 39.9453 268.317 42.2142V42.8501H262.558C261.836 40.4954 261.785 38.5359 261.699 33.9295C261.665 31.9185 260.805 30.5606 259.052 30.5606H258.622V30.5778Z" fill="#FF737D"/>
</svg>
