<svg width="176" height="41" viewBox="0 0 176 41" fill="none" xmlns="http://www.w3.org/2000/svg">
<g clip-path="url(#clip0_183_751)">
<path d="M167.55 18.7366V16.3627H168.207C169.099 16.3627 169.806 15.6336 169.806 14.7519V12.5137H172.852V16.3458H175.781V18.7366H172.852V25.1291C172.852 25.9938 173.256 26.2651 174.081 26.2651C174.435 26.2651 174.822 26.2482 175.613 26.0447L175.966 28.5372C174.889 28.8933 173.997 28.9951 173.206 28.9951C170.698 28.9951 169.721 27.8081 169.721 25.5021V18.7196H167.533L167.55 18.7366Z" fill="white"/>
<path fill-rule="evenodd" clip-rule="evenodd" d="M90.4745 17.6174V11.5132H93.6053V28.7067H92.3092C91.4171 28.7067 90.6933 27.9776 90.6933 27.0789C89.8685 28.3167 88.6061 29.0628 86.7714 29.0628C83.6405 29.0628 81.3345 26.5194 81.3345 22.5177C81.3345 18.5161 83.6742 15.9727 86.7882 15.9727C88.4546 15.9727 89.6497 16.5492 90.4745 17.6004V17.6174ZM84.5158 22.5347C84.5158 24.8577 85.6436 26.3668 87.4951 26.3668C89.3467 26.3668 90.5923 24.9086 90.5923 22.5347C90.5923 20.1608 89.2457 18.7365 87.512 18.7365C85.7782 18.7365 84.499 20.1947 84.499 22.5347H84.5158Z" fill="white"/>
<path d="M71.5714 17.7362C72.3457 16.6171 73.5913 15.9219 75.2746 15.9219C78.1361 15.9219 79.6678 17.7192 79.6678 20.2287V28.7068H76.537V21.1783C76.537 19.5505 75.7459 18.6349 74.2478 18.6349C72.7497 18.6349 71.7734 19.7031 71.7734 21.2461V28.7068H68.6426V16.3288H70.1575C70.9318 16.3288 71.5546 16.9562 71.5546 17.7362H71.5714Z" fill="white"/>
<path fill-rule="evenodd" clip-rule="evenodd" d="M101.231 15.9219C98.8066 15.9219 97.0224 16.8714 95.4906 18.7027L97.46 20.517C98.7393 19.2792 99.5978 18.4992 101.281 18.4992C102.695 18.4992 103.587 19.1774 103.587 20.3813V20.6696L100.709 21.1952C97.9145 21.7039 95.3896 22.7043 95.3896 25.553C95.3896 28.0794 97.46 29.0968 99.7829 29.0968C101.685 29.0968 102.998 28.4355 103.755 27.4012C103.755 28.1133 104.328 28.6899 105.035 28.6899H106.566V20.3305C106.566 17.7192 104.765 15.9049 101.231 15.9049V15.9219ZM100.322 26.6042C99.1433 26.6042 98.4532 26.1464 98.4532 25.3664C98.4532 24.1965 99.6819 23.7726 101.533 23.3826L103.604 22.9417V23.6708C103.604 25.8243 101.921 26.6042 100.338 26.6042H100.322Z" fill="white"/>
<path fill-rule="evenodd" clip-rule="evenodd" d="M108.199 22.5178C108.199 18.6009 110.841 15.9219 114.595 15.9219C118.349 15.9219 120.975 18.584 120.975 22.5178C120.975 26.4516 118.332 29.1138 114.595 29.1138C110.858 29.1138 108.199 26.4516 108.199 22.5178ZM117.793 22.5178C117.793 20.144 116.514 18.6009 114.595 18.6009C112.676 18.6009 111.38 20.144 111.38 22.5178C111.38 24.8917 112.659 26.4347 114.595 26.4347C116.531 26.4347 117.793 24.9086 117.793 22.5178Z" fill="white"/>
<path d="M136.107 15.9219C134.306 15.9219 133.145 16.7018 132.421 17.7362C131.764 16.6001 130.62 15.9219 129.004 15.9219C127.27 15.9219 126.142 16.651 125.486 17.7192C125.486 16.9562 124.88 16.3458 124.123 16.3458H122.591V28.7238H125.722V21.1104C125.722 19.737 126.462 18.6348 127.893 18.6348C129.324 18.6348 129.846 19.6353 129.846 21.0087V28.7068H132.976V21.0935C132.976 19.6861 133.717 18.6179 135.148 18.6179C136.579 18.6179 137.1 19.6183 137.1 20.9918V28.6899H140.231V20.0422C140.231 17.5157 138.784 15.9049 136.141 15.9049L136.107 15.9219Z" fill="white"/>
<path fill-rule="evenodd" clip-rule="evenodd" d="M144.877 23.3317C145.146 25.1291 146.207 26.4347 148.344 26.4347C149.792 26.4347 150.55 25.943 151.997 24.7391L153.748 26.6721C151.947 28.5203 150.263 29.0968 148.26 29.0968C144.288 29.0968 141.813 26.5364 141.813 22.5856C141.813 18.6349 144.12 15.9219 147.991 15.9219C151.862 15.9219 153.731 18.2957 153.731 22.0939C153.731 22.4839 153.714 23.0604 153.68 23.3317H144.86H144.877ZM150.701 21.0765C150.583 19.4318 149.624 18.3805 147.907 18.3805C146.19 18.3805 145.281 19.4657 144.944 21.0765H150.684H150.701Z" fill="white"/>
<path d="M162.063 15.9219C160.38 15.9219 159.134 16.6171 158.36 17.7362C158.36 16.9562 157.737 16.3288 156.963 16.3288H155.448V28.7068H158.579V21.2461C158.579 19.7031 159.605 18.6349 161.053 18.6349C162.501 18.6349 163.342 19.5505 163.342 21.1783V28.7068H166.473V20.2287C166.473 17.7023 164.941 15.9219 162.08 15.9219H162.063Z" fill="white"/>
<path d="M54.4023 11.5132H66.8247V14.7349H57.6005V18.3635H66.8247V21.5851H57.6005V25.6207H66.8247V28.8424H54.4023V11.5132Z" fill="white"/>
<path d="M8.39956 11.598C10.3521 11.598 11.9344 10.0041 11.9344 8.03723C11.9344 6.07032 10.3521 4.47644 8.39956 4.47644C6.447 4.47644 4.86475 6.07032 4.86475 8.03723C4.86475 10.0041 6.447 11.598 8.39956 11.598Z" fill="white"/>
<path d="M8.39956 35.8284C10.3521 35.8284 11.9344 34.2345 11.9344 32.2676C11.9344 30.3007 10.3521 28.7068 8.39956 28.7068C6.447 28.7068 4.86475 30.3007 4.86475 32.2676C4.86475 34.2345 6.447 35.8284 8.39956 35.8284Z" fill="white"/>
<path d="M32.1837 11.598C34.1363 11.598 35.7185 10.0041 35.7185 8.03723C35.7185 6.07032 34.1363 4.47644 32.1837 4.47644C30.2312 4.47644 28.6489 6.07032 28.6489 8.03723C28.6489 10.0041 30.2312 11.598 32.1837 11.598Z" fill="white"/>
<path d="M32.1837 35.8284C34.1363 35.8284 35.7185 34.2345 35.7185 32.2676C35.7185 30.3007 34.1363 28.7068 32.1837 28.7068C30.2312 28.7068 28.6489 30.3007 28.6489 32.2676C28.6489 34.2345 30.2312 35.8284 32.1837 35.8284Z" fill="white"/>
<path d="M15.2839 21.7378L10.3856 20.5L0 23.2978L1.32976 28.2829L16.7483 24.1286L12.5907 39.6605L17.5394 41L20.3336 30.5041L19.1048 25.5699C18.886 24.6373 18.4147 23.7895 17.7414 23.1112C17.0681 22.433 16.2265 21.9582 15.3007 21.7208L15.2839 21.7378Z" fill="white"/>
<path d="M12.5738 1.33954L16.6978 16.8714L1.2961 12.7002L0 17.6514L10.3856 20.4491L15.2839 19.2622C16.2096 19.0248 17.0513 18.55 17.7246 17.8548C18.3979 17.1766 18.8692 16.3118 19.088 15.3792L20.3168 10.445L17.5226 0L12.5738 1.33954Z" fill="white"/>
<path d="M25.3832 19.2792L30.3151 20.4661L40.7008 17.6683L39.3878 12.6832L23.9693 16.8375L28.0933 1.30562L23.1277 0L20.3335 10.4959L21.5623 15.4132C21.7811 16.3457 22.2524 17.2105 22.9257 17.8888C23.599 18.567 24.4406 19.0587 25.3664 19.2961L25.3832 19.2792Z" fill="white"/>
<path d="M25.3835 21.7378C24.4577 21.9582 23.6329 22.45 22.9596 23.1113C22.2863 23.7895 21.815 24.6204 21.5794 25.5529L20.3506 30.4872L23.1448 40.9831L28.0935 39.6774L23.9696 24.1456L39.3881 28.2998L40.701 23.3147L30.3322 20.517L25.4003 21.7548L25.3835 21.7378Z" fill="white"/>
</g>
<defs>
<clipPath id="clip0_183_751">
<rect width="176" height="41" fill="white"/>
</clipPath>
</defs>
</svg>
