<svg width="352" height="40" viewBox="0 0 352 40" fill="none" xmlns="http://www.w3.org/2000/svg">
<path d="M12.7718 7.24109V35.3966L12.8329 39.3406H5.49061L5.53956 35.3966V7.24109H0.387695V0.696777H17.8257V7.24109H12.7718Z" fill="#59CCF5"/>
<path d="M39.5104 0.696777L39.4614 4.64079V29.7232C39.4614 36.3173 35.9493 39.9876 30.1611 39.9876C24.3729 39.9876 20.9098 36.3173 20.9098 29.7232V4.64079L20.8608 0.696777H28.1909L28.142 4.64079V29.9347C28.142 32.1493 28.6192 33.3935 30.1611 33.3935C31.703 33.3935 32.1803 32.1493 32.1803 29.9347V0.696777H39.5104Z" fill="#59CCF5"/>
<path d="M50.9887 17.0825H51.576C54.2805 17.0825 54.978 15.1416 54.978 12.168V12.0063C54.978 9.19444 54.2805 7.02959 51.625 7.02959H50.9887V17.0825V17.0825ZM50.9887 23.7885V35.409L51.0376 39.353H43.7075L43.7565 35.409V4.64079L43.7075 0.696777H51.8453C59.983 0.696777 62.2591 5.44949 62.2591 11.2349V11.3468C62.2591 18.1524 59.9218 19.6703 57.1562 20.5412V20.815C59.3344 21.4122 62.1001 22.8678 62.2102 29.2504C62.2591 33.5179 62.3203 35.6827 63.0668 38.5443V39.353H55.8958C54.9902 36.3795 54.9413 33.8911 54.8311 28.056C54.7822 25.5179 53.7176 23.7885 51.5393 23.7885H51.0131H50.9887Z" fill="#59CCF5"/>
<path d="M66.4562 35.3966V4.64079L66.4072 0.696777H71.143L76.3561 13.6734C77.2616 15.7761 77.3106 16.1618 77.898 17.6672H78.1182C78.0693 16.3733 78.0081 14.4821 78.0081 13.126V4.64079L77.898 0.696777H84.8609L84.7508 4.64079V35.3966L84.8609 39.3406H80.2965L74.6062 25.5552C74.08 24.3608 73.4926 22.6314 73.2723 22.1462H73.0643C73.1744 23.3904 73.2234 25.2815 73.2234 26.6874V35.3841L73.2723 39.3282H66.4072L66.4562 35.3841V35.3966Z" fill="#59CCF5"/>
<path d="M96.2788 26.6376C96.2788 31.1789 96.389 33.3935 98.506 33.3935C100.623 33.3935 100.733 31.1789 100.733 26.6376V13.3997C100.733 8.8585 100.525 6.64389 98.506 6.64389C96.3767 6.64389 96.2788 8.8585 96.2788 13.3997V26.6376ZM91.7633 37.661C89.9032 35.6579 88.9487 32.9082 88.9487 25.1198V14.9176C88.9487 7.12911 89.9032 4.3795 91.7633 2.3764C93.1461 0.920721 95.4834 0.0498047 98.5182 0.0498047C101.553 0.0498047 103.89 0.920721 105.273 2.3764C107.133 4.42927 108.149 7.12911 108.149 14.9176V25.1322C108.149 32.9207 107.194 35.6703 105.273 37.6734C103.89 39.1913 101.602 40 98.5182 40C95.4345 40 93.1461 39.1913 91.7633 37.6734" fill="#59CCF5"/>
<path d="M130.775 0.696777L130.726 4.64079V29.7232C130.726 36.3173 127.213 39.9876 121.425 39.9876C115.637 39.9876 112.174 36.3173 112.174 29.7232V4.64079L112.125 0.696777H119.455L119.406 4.64079V29.9347C119.406 32.1493 119.883 33.3935 121.425 33.3935C122.967 33.3935 123.444 32.1493 123.444 29.9347V0.696777H130.775V0.696777Z" fill="#59CCF5"/>
<path d="M146.195 7.24109V35.3966L146.244 39.3406H138.913L138.962 35.3966V7.24109H133.811V0.696777H151.249V7.24109H146.195Z" fill="#59CCF5"/>
<path d="M207.111 32.9207C209.877 32.9207 210.721 31.5645 210.721 27.944V27.7823C210.721 24.8087 209.767 22.9176 207.209 22.9176H206.622V32.9207H207.099H207.111ZM206.634 16.3235H207.319C209.926 16.3235 210.672 14.1089 210.672 11.297V11.1353C210.672 8.43547 209.926 6.75584 207.16 6.75584H206.634V16.3235ZM199.402 39.2908L199.451 35.3468V4.60343L199.402 0.659424H207.858C214.295 0.659424 217.635 4.49146 217.635 10.5505V10.6625C217.635 14.93 216.62 18.0653 212.422 19.4215V19.633C216.461 20.5536 218.002 23.689 218.002 27.9564V28.0684C218.002 36.3919 214.552 39.3157 208.066 39.3157H199.402V39.2908Z" fill="#241F21"/>
<path d="M239.858 0.659424L239.809 4.60343V29.6858C239.809 36.2799 236.296 39.9502 230.508 39.9502C224.72 39.9502 221.257 36.2799 221.257 29.6858V4.60343L221.208 0.659424H228.538L228.489 4.60343V29.8973C228.489 32.112 228.966 33.3561 230.508 33.3561C232.05 33.3561 232.527 32.112 232.527 29.8973V0.659424H239.858V0.659424Z" fill="#241F21"/>
<path d="M251.336 17.0327H251.923C254.628 17.0327 255.325 15.0918 255.325 12.1182V11.9565C255.325 9.14464 254.628 6.97979 251.972 6.97979H251.336V17.0327V17.0327ZM251.336 23.7387V35.3592L251.385 39.3032H244.055L244.104 35.3592V4.60343L244.055 0.659424H252.192C260.33 0.659424 262.606 5.41214 262.606 11.1975V11.3095C262.606 18.1151 260.269 19.633 257.503 20.5039V20.7776C259.682 21.3748 262.447 22.8305 262.557 29.2131C262.606 33.4805 262.667 35.6454 263.414 38.507V39.3157H256.243C255.337 36.3421 255.288 33.8538 255.178 28.0186C255.129 25.4805 254.065 23.7512 251.887 23.7512H251.36L251.336 23.7387Z" fill="#241F21"/>
<path d="M266.803 35.3592V4.60343L266.754 0.659424H271.49L276.703 13.6361C277.609 15.7387 277.658 16.1244 278.245 17.6299H278.453C278.404 16.3359 278.343 14.4448 278.343 13.0886V4.60343L278.233 0.659424H285.196L285.086 4.60343V35.3592L285.196 39.3032H280.619L274.929 25.5179C274.403 24.3235 273.815 22.5941 273.595 22.1089H273.387C273.497 23.353 273.546 25.2442 273.546 26.6501V35.3468L273.595 39.2908H266.742L266.791 35.3468L266.803 35.3592Z" fill="#241F21"/>
<path d="M296.626 26.6003C296.626 31.1415 296.736 33.3561 298.853 33.3561C300.97 33.3561 301.08 31.1415 301.08 26.6003V13.3623C301.08 8.82114 300.872 6.60652 298.853 6.60652C296.724 6.60652 296.626 8.82114 296.626 13.3623V26.6003V26.6003ZM292.11 37.6236C290.25 35.6205 289.296 32.8709 289.296 25.0824V14.8678C289.296 7.07931 290.25 4.3297 292.11 2.32659C293.493 0.870917 295.831 0 298.865 0C301.9 0 304.238 0.858475 305.62 2.32659C307.48 4.37947 308.496 7.07931 308.496 14.8678V25.0824C308.496 32.8709 307.542 35.6205 305.62 37.6236C304.238 39.1415 301.949 39.9502 298.865 39.9502C295.782 39.9502 293.493 39.1415 292.11 37.6236" fill="#241F21"/>
<path d="M331.123 0.659424L331.074 4.60343V29.6858C331.074 36.2799 327.562 39.9502 321.773 39.9502C315.985 39.9502 312.522 36.2799 312.522 29.6858V4.60343L312.473 0.659424H319.803L319.754 4.60343V29.8973C319.754 32.112 320.232 33.3561 321.773 33.3561C323.315 33.3561 323.793 32.112 323.793 29.8973V0.659424H331.123V0.659424Z" fill="#241F21"/>
<path d="M346.541 7.20374V35.3592L346.602 39.3032H339.26L339.309 35.3592V7.20374H334.157V0.659424H351.595V7.20374H346.541Z" fill="#241F21"/>
<path d="M161.172 22.0964V28.7651L161.197 31.0171H157.012L157.036 28.7651V11.1975L157.012 8.94556H165.394V12.6781H161.172V17.8911H164.721V22.0964H161.172Z" fill="#FF737D"/>
<path d="M171.195 23.7635C171.195 26.3514 171.257 27.6204 172.468 27.6204C173.68 27.6204 173.741 26.3514 173.741 23.7635V16.199C173.741 13.6111 173.618 12.3421 172.468 12.3421C171.257 12.3421 171.195 13.6111 171.195 16.199V23.7635ZM168.613 30.059C167.549 28.9144 166.998 27.3467 166.998 22.8926V17.0575C166.998 12.6158 167.549 11.0357 168.613 9.89107C169.397 9.05748 170.743 8.55981 172.468 8.55981C174.194 8.55981 175.54 9.05748 176.323 9.89107C177.387 11.0606 177.963 12.6034 177.963 17.0575V22.8926C177.963 27.3343 177.412 28.9144 176.323 30.059C175.54 30.9299 174.23 31.3903 172.468 31.3903C170.706 31.3903 169.397 30.9299 168.613 30.059Z" fill="#FF737D"/>
<path d="M184.497 18.3017H184.827C186.381 18.3017 186.773 17.1944 186.773 15.4899V15.4028C186.773 13.7978 186.381 12.5661 184.864 12.5661H184.497V18.3141V18.3017ZM184.497 22.1337V28.7776L184.533 31.0295H180.336L180.373 28.7776V11.1975L180.336 8.94556H184.986C189.636 8.94556 190.933 11.6578 190.933 14.9673V15.0295C190.933 18.9238 189.6 19.7822 188.021 20.2799V20.4292C189.269 20.7651 190.848 21.5987 190.909 25.2441C190.933 27.6827 190.97 28.9144 191.398 30.5567V31.0171H187.299C186.785 29.3126 186.748 27.8942 186.687 24.5598C186.663 23.1042 186.051 22.1213 184.803 22.1213H184.497V22.1337Z" fill="#FF737D"/>
</svg>
