<svg width="404" height="191" viewBox="0 0 404 191" fill="none" xmlns="http://www.w3.org/2000/svg">
<path d="M41.7315 33.1143V85.1906L41.8233 92.4854H28.0735L28.1653 85.1906V33.1143H18.5015V21.01H51.2117V33.1143H41.7315Z" fill="#59CCF5"/>
<path d="M91.887 21.01L91.7952 28.3048V74.6971C91.7952 86.8935 85.2072 93.6821 74.3497 93.6821C63.4922 93.6821 56.9961 86.8935 56.9961 74.6971V28.3048L56.9043 21.01H70.6541L70.5622 28.3048V75.0883C70.5622 79.1845 71.4575 81.4857 74.3497 81.4857C77.242 81.4857 78.1373 79.1845 78.1373 75.0883V21.01H91.887Z" fill="#59CCF5"/>
<path d="M113.418 51.2939H114.52C119.593 51.2939 120.901 47.704 120.901 42.2041V41.9049C120.901 36.7042 119.593 32.7001 114.612 32.7001H113.418V51.2939ZM113.418 63.6974V85.1906L113.51 92.4854H99.7603L99.8521 85.1906V28.3048L99.7603 21.01H115.025C130.29 21.01 134.559 29.8006 134.559 40.5012V40.7083C134.559 53.2959 130.175 56.1034 124.987 57.6912V58.1975C129.073 59.3021 134.261 61.9945 134.468 73.7996C134.559 81.6928 134.674 85.6969 136.074 90.9897V92.4854H122.623C120.924 86.9855 120.833 82.3831 120.626 71.5905C120.534 66.896 118.537 63.6974 114.451 63.6974H113.464H113.418Z" fill="#59CCF5"/>
<path d="M142.433 85.1906V28.3048L142.341 21.01H151.225L161.003 45.0116C162.702 48.9006 162.794 49.614 163.896 52.3984H164.286C164.194 50.0052 164.079 46.5074 164.079 43.999V28.3048L163.873 21.01H176.934L176.727 28.3048V85.1906L176.934 92.4854H168.349L157.675 66.9881C156.688 64.7789 155.586 61.5803 155.173 60.6828H154.783C154.989 62.984 155.081 66.4818 155.081 69.0822V85.1676L155.173 92.4624H142.318L142.41 85.1676L142.433 85.1906Z" fill="#59CCF5"/>
<path d="M198.373 68.9902C198.373 77.3896 198.58 81.4857 202.551 81.4857C206.522 81.4857 206.729 77.3896 206.729 68.9902V44.5053C206.729 36.1059 206.339 32.0098 202.551 32.0098C198.557 32.0098 198.373 36.1059 198.373 44.5053V68.9902ZM189.903 89.3788C186.414 85.6739 184.624 80.5882 184.624 66.1827V47.2898C184.624 32.8843 186.414 27.7986 189.903 24.0937C192.497 21.4012 196.881 19.7904 202.574 19.7904C208.267 19.7904 212.651 21.4012 215.245 24.0937C218.734 27.8906 220.639 32.8843 220.639 47.2898V66.1827C220.639 80.5882 218.849 85.6739 215.245 89.3788C212.651 92.1863 208.359 93.6821 202.574 93.6821C196.789 93.6821 192.497 92.1863 189.903 89.3788Z" fill="#59CCF5"/>
<path d="M263.082 21.01L262.99 28.3048V74.6971C262.99 86.8935 256.402 93.6821 245.545 93.6821C234.687 93.6821 228.191 86.8935 228.191 74.6971V28.3048L228.099 21.01H241.849L241.757 28.3048V75.0883C241.757 79.1845 242.652 81.4857 245.545 81.4857C248.437 81.4857 249.332 79.1845 249.332 75.0883V21.01H263.082Z" fill="#59CCF5"/>
<path d="M292.005 33.1143V85.1906L292.097 92.4854H278.347L278.439 85.1906V33.1143H268.775V21.01H301.485V33.1143H292.005Z" fill="#59CCF5"/>
<path d="M119.249 152.156C124.437 152.156 126.021 149.647 126.021 142.951V142.652C126.021 137.152 124.23 133.654 119.433 133.654H118.331V152.156H119.226H119.249ZM118.354 121.458H119.639C124.529 121.458 125.929 117.361 125.929 112.161V111.862C125.929 106.868 124.529 103.761 119.341 103.761H118.354V121.458ZM104.788 163.938L104.879 156.643V99.7572L104.788 92.4624H120.649C132.723 92.4624 138.99 99.5501 138.99 110.757V110.964C138.99 118.857 137.085 124.656 129.211 127.165V127.556C136.786 129.259 139.679 135.058 139.679 142.951V143.158C139.679 158.553 133.205 163.961 121.039 163.961H104.788V163.938Z" fill="#241F21"/>
<path d="M180.675 92.4854L180.583 99.7802V146.172C180.583 158.369 173.995 165.157 163.138 165.157C152.28 165.157 145.784 158.369 145.784 146.172V99.7802L145.692 92.4854H159.442L159.35 99.7802V146.564C159.35 150.66 160.246 152.961 163.138 152.961C166.03 152.961 166.925 150.66 166.925 146.564V92.4854H180.675Z" fill="#241F21"/>
<path d="M202.207 122.769H203.309C208.382 122.769 209.69 119.179 209.69 113.679V113.38C209.69 108.18 208.382 104.175 203.4 104.175H202.207V122.769ZM202.207 135.173V156.666L202.299 163.961H188.549L188.641 156.666V99.7802L188.549 92.4854H203.814C219.078 92.4854 223.348 101.276 223.348 111.977V112.184C223.348 124.771 218.964 127.579 213.776 129.167V129.673C217.862 130.777 223.05 133.47 223.256 145.275C223.348 153.168 223.463 157.172 224.863 162.465V163.961H211.412C209.713 158.461 209.621 153.858 209.415 143.066C209.323 138.371 207.326 135.173 203.24 135.173H202.253H202.207Z" fill="#241F21"/>
<path d="M231.221 156.666V99.7802L231.129 92.4854H240.013L249.791 116.487C251.49 120.376 251.582 121.089 252.684 123.874H253.074C252.982 121.481 252.867 117.983 252.867 115.474V99.7802L252.661 92.4854H265.722L265.515 99.7802V156.666L265.722 163.961H257.137L246.463 138.463C245.476 136.254 244.374 133.056 243.961 132.158H243.571C243.777 134.459 243.869 137.957 243.869 140.558V156.643L243.961 163.938H231.106L231.198 156.643L231.221 156.666Z" fill="#241F21"/>
<path d="M287.161 140.466C287.161 148.865 287.368 152.961 291.362 152.961C295.356 152.961 295.54 148.865 295.54 140.466V115.981C295.54 107.581 295.15 103.485 291.362 103.485C287.368 103.485 287.161 107.581 287.161 115.981V140.466ZM278.691 160.854C275.202 157.149 273.412 152.064 273.412 137.658V118.765C273.412 104.36 275.202 99.2739 278.691 95.569C281.285 92.8766 285.669 91.2657 291.362 91.2657C297.055 91.2657 301.439 92.8536 304.033 95.569C307.522 99.366 309.427 104.36 309.427 118.765V137.658C309.427 152.064 307.637 157.149 304.033 160.854C301.439 163.662 297.147 165.157 291.362 165.157C285.578 165.157 281.285 163.662 278.691 160.854Z" fill="#241F21"/>
<path d="M351.87 92.4854L351.779 99.7802V146.172C351.779 158.369 345.191 165.157 334.333 165.157C323.476 165.157 316.979 158.369 316.979 146.172V99.7802L316.888 92.4854H330.637L330.546 99.7802V146.564C330.546 150.66 331.441 152.961 334.333 152.961C337.225 152.961 338.121 150.66 338.121 146.564V92.4854H351.87Z" fill="#241F21"/>
<path d="M380.793 104.59V156.666L380.885 163.961H367.135L367.227 156.666V104.59H357.563V92.4855H390.273V104.59H380.793Z" fill="#241F21"/>
<path d="M36.2455 127.947V140.281L36.2914 144.447H28.4409L28.4868 140.281V107.788L28.4409 103.6H44.1648V110.527H36.2455V120.169H42.9023V127.947H36.2455Z" fill="#FF737D"/>
<path d="M55.0448 131.031C55.0448 135.817 55.1596 138.164 57.4321 138.164C59.7046 138.164 59.8193 135.817 59.8193 131.031V117.039C59.8193 112.253 59.5898 109.906 57.4321 109.906C55.1596 109.906 55.0448 112.253 55.0448 117.039V131.031ZM50.2014 142.675C48.2043 140.558 47.1714 137.658 47.1714 129.42V118.627C47.1714 110.412 48.2043 107.489 50.2014 105.372C51.6934 103.83 54.1955 102.91 57.4321 102.91C60.6687 102.91 63.1937 103.83 64.6628 105.372C66.6598 107.535 67.7387 110.389 67.7387 118.627V129.42C67.7387 137.635 66.7057 140.558 64.6628 142.675C63.1707 144.286 60.7375 145.137 57.4321 145.137C54.1266 145.137 51.6705 144.286 50.2014 142.675Z" fill="#FF737D"/>
<path d="M79.9964 120.905H80.6162C83.5314 120.905 84.266 118.857 84.266 115.705V115.544C84.266 112.575 83.5314 110.297 80.6851 110.297H79.9964V120.928V120.905ZM79.9964 127.993V140.281L80.0653 144.447H72.1919L72.2608 140.281V107.788L72.1919 103.623H80.9146C89.6373 103.623 92.0705 108.64 92.0705 114.761V114.876C92.0705 122.079 89.5685 123.667 86.6073 124.587V124.863C88.9487 125.485 91.9098 127.027 92.0246 133.769C92.0705 138.279 92.1394 140.558 92.9428 143.595V144.447H85.253C84.2889 141.294 84.2201 138.671 84.1053 132.503C84.0594 129.811 82.9117 127.993 80.5703 127.993H79.9964Z" fill="#FF737D"/>
</svg>
